<svg id="visual" viewBox="0 0 100 120" width="100" height="120" xmlns="http://www.w3.org/2000/svg" xmlns:xlink="http://www.w3.org/1999/xlink" version="1.1"><rect x="0" y="0" width="100" height="120" fill="#4840A3"></rect><defs><linearGradient id="grad1_0" x1="0%" y1="0%" x2="100%" y2="100%"><stop offset="30%" stop-color="#4840a3" stop-opacity="1"></stop><stop offset="70%" stop-color="#4840a3" stop-opacity="1"></stop></linearGradient></defs><defs><linearGradient id="grad2_0" x1="0%" y1="0%" x2="100%" y2="100%"><stop offset="30%" stop-color="#4840a3" stop-opacity="1"></stop><stop offset="70%" stop-color="#4840a3" stop-opacity="1"></stop></linearGradient></defs><g transform="translate(100, 0)"><path d="M0 15.6C-2.2 15.5 -4.3 15.4 -6 14.4C-7.6 13.4 -8.8 11.5 -9.9 9.9C-11 8.3 -12 7 -12.9 5.4C-13.9 3.8 -14.7 1.9 -15.6 0L0 0Z" fill="#9CBBFC"></path></g><g transform="translate(0, 120)"><path d="M0 -15.6C1.7 -14.6 3.3 -13.5 5.4 -12.9C7.4 -12.4 9.8 -12.3 11 -11C12.3 -9.8 12.4 -7.4 12.9 -5.4C13.5 -3.3 14.6 -1.7 15.6 0L0 0Z" fill="#9CBBFC"></path></g></svg>